<svg xmlns="http://www.w3.org/2000/svg" xml:space="preserve" viewBox="0 0 600 600"><path d="M0 0h600v600H0z" style="fill:#fff"/><path d="M510 216.125C510 369.25 300 448 300 448S90 369.25 90 216.125C90 150.85 140.736 98 203.4 98c40.824 0 76.608 22.488 96.6 56.175C319.992 120.488 355.776 98 396.6 98 459.264 98 510 150.85 510 216.125" style="fill:#f7263f"/><path d="M510 216.12C510 369.25 300 448 300 448s-84.19-31.57-145.96-93.61C361.66 415.7 437 293.4 437 202c0-70.76-50.37-92.31-74.45-98.57C373.3 99.9 384.74 98 396.6 98 459.26 98 510 150.85 510 216.12" style="fill:#cc1f3c"/><path d="M219.04 126.267c-36.261-3.592-111.617.842-101.03 102.431.411 3.943 5.911 4.541 7.177.784 9.029-26.802 33.76-77.753 94.589-96.006 3.868-1.161 3.283-6.811-.736-7.209" style="fill:#ff7683"/><ellipse cx="300" cy="484" rx="132.5" ry="18" style="fill:#dbdbdb"/></svg>