<?xml version="1.0" encoding="utf-8"?>
<!-- Generator: Adobe Illustrator 27.5.0, SVG Export Plug-In . SVG Version: 6.00 Build 0)  -->
<svg version="1.1" id="Capa_1" xmlns="http://www.w3.org/2000/svg" xmlns:xlink="http://www.w3.org/1999/xlink" x="0px" y="0px"
	 viewBox="0 0 2122 2122" style="enable-background:new 0 0 2122 2122;" xml:space="preserve">
<g>
	<polygon style="fill:#EF7D19;" points="1628.835,1155.798 2018.692,1060.661 1681.439,978.357 1938.545,815.057 1557.358,810.091 
		1770.459,533.224 1503.074,628.36 1607.276,347.033 1312.062,559.063 1321.801,207.249 1154.72,451.126 1068.212,151.593 
		963.306,493.468 767.22,207.249 775.41,503.232 527.263,303.387 648.462,650.604 318.553,533.224 497.089,765.183 191.051,744.432 
		488.25,958.703 72.296,1060.661 434.793,1149.513 188,1306.265 532.026,1310.747 318.553,1588.094 629.163,1477.583 
		519.269,1774.284 776.194,1589.759 767.22,1914.068 960.693,1631.664 1058.333,1969.729 1151.628,1665.679 1321.801,1914.068 
		1312.752,1587.175 1599.282,1817.934 1483.405,1485.963 1770.459,1588.094 1589.858,1353.454 1935.493,1376.89 	"/>
	<path style="fill:#FCCA68;" d="M1534.586,1281.646c-30.513-39.646-11.693-97.568,36.296-111.705l57.953-14.142l389.857-95.137
		l-337.253-82.303l-110.557-26.98c-47.989-14.137-66.809-72.058-36.296-111.701l22.772-29.585l213.101-276.868l-267.386,95.136
		l-96.952,34.496c-47.131,16.765-96.407-19.03-95.022-69.039l0.962-34.754l9.739-351.814L1154.72,451.126l-51.485,75.149
		c-28.275,41.273-89.177,41.273-117.452,0l-22.476-32.807L767.22,207.249l8.19,295.983l2.506,90.585
		c1.381,50.008-47.891,85.803-95.021,69.039l-34.433-12.251l-329.91-117.381l178.536,231.959l57.336,74.494
		c30.513,39.642,11.694,97.564-36.29,111.701l-29.884,7.325L72.296,1060.661l362.498,88.852l83.341,20.428
		c47.984,14.137,66.804,72.059,36.29,111.705l-22.399,29.101l-213.474,277.347l310.611-110.51l53.732-19.117
		c47.13-16.769,96.402,19.03,95.021,69.039l-1.723,62.254l-8.974,324.309l193.474-282.404l25.089-36.622
		c28.274-41.273,89.176-41.273,117.452,0l48.394,70.637l170.173,248.389l-9.049-326.893l-1.652-59.67
		c-1.385-50.009,47.891-85.808,95.022-69.039l77.284,27.496l287.054,102.131l-180.601-234.64L1534.586,1281.646z"/>
	<path style="fill:#FCF09D;" d="M1403.82,1226.489c12.386-22.113,22.676-45.542,30.602-70.051c0.313-0.103,0.595-0.249,0.912-0.345
		l312.882-79.467l-277.297-70.429c-0.738-43.901-16.268-84.179-41.847-116.087l145.705-197.018l-222.16,82.262
		c-0.134-0.148-0.277-0.287-0.411-0.435c-3.293-3.623-6.655-7.18-10.081-10.677c-0.872-0.89-1.77-1.752-2.65-2.633
		c-2.61-2.614-5.249-5.198-7.932-7.737c-1.202-1.138-2.417-2.261-3.634-3.383c-2.522-2.327-5.077-4.618-7.66-6.879
		c-1.183-1.035-2.358-2.077-3.553-3.097c-3.241-2.768-6.527-5.483-9.859-8.145c-0.515-0.411-1.013-0.84-1.53-1.248
		c-3.849-3.044-7.767-6.003-11.732-8.903c-1.135-0.83-2.291-1.629-3.434-2.447c-2.897-2.07-5.817-4.109-8.772-6.101
		c-1.396-0.941-2.798-1.87-4.207-2.793c-2.904-1.904-5.84-3.764-8.798-5.592c-1.299-0.802-2.586-1.618-3.894-2.405
		c-3.165-1.904-6.365-3.75-9.587-5.565l6.412-241.258l-129.785,197.155c-21.925-3.834-44.465-5.879-67.487-5.879
		c-20.802,0-41.209,1.672-61.128,4.815L873.813,456.057l6.31,237.415c-38.67,20.769-73.415,47.879-102.862,79.946l-216.934-80.326
		l142.383,192.521c-28.16,33.016-45.278,75.719-45.618,122.434l-268.823,68.579l304.656,77.72
		c8.777,27.688,20.61,53.999,35.027,78.622c-0.881,1.47-1.775,2.938-2.819,4.349L560.328,1460.16l254.568-94.262
		c32.931-12.194,67.359,13.838,66.389,50.201l-7.471,281.095l152.71-231.985c19.754-30.008,62.305-30.008,82.064,0l152.71,231.985
		l-7.471-281.095c-0.97-36.363,33.453-62.394,66.384-50.201l254.568,94.262l-164.801-222.844
		C1407.432,1233.874,1405.407,1230.234,1403.82,1226.489z"/>
	<path style="fill:#F7BA4D;" d="M1470.92,1006.197c-0.738-43.901-16.268-84.179-41.847-116.087c-2.721-3.393-5.537-6.705-8.48-9.904
		c-0.162-0.369-0.336-0.732-0.5-1.102c-0.602-1.359-1.227-2.705-1.844-4.056c-1.672-3.66-3.399-7.288-5.181-10.885
		c-0.642-1.298-1.272-2.601-1.928-3.891c-2.373-4.661-4.817-9.279-7.369-13.829c-0.335-0.596-0.692-1.177-1.029-1.772
		c-2.266-3.988-4.604-7.927-7.004-11.825c-0.822-1.334-1.658-2.659-2.495-3.983c-2.173-3.435-4.397-6.831-6.674-10.193
		c-0.711-1.05-1.403-2.113-2.124-3.156c-2.947-4.261-5.971-8.461-9.08-12.596c-0.685-0.912-1.398-1.802-2.092-2.707
		c-2.527-3.3-5.103-6.559-7.732-9.774c-0.986-1.207-1.977-2.409-2.978-3.604c-2.801-3.344-5.654-6.639-8.564-9.886
		c-0.469-0.524-0.91-1.074-1.381-1.596c-0.134-0.148-0.277-0.287-0.411-0.435c-3.293-3.623-6.655-7.18-10.081-10.677
		c-0.872-0.89-1.77-1.752-2.65-2.633c-2.61-2.614-5.249-5.198-7.932-7.737c-1.202-1.138-2.417-2.261-3.634-3.383
		c-2.522-2.327-5.077-4.618-7.66-6.879c-1.183-1.035-2.358-2.077-3.553-3.097c-3.241-2.768-6.527-5.483-9.859-8.145
		c-0.515-0.411-1.013-0.84-1.53-1.248c-3.849-3.044-7.767-6.003-11.732-8.903c-1.135-0.83-2.291-1.629-3.434-2.447
		c-2.897-2.07-5.817-4.109-8.772-6.101c-1.396-0.941-2.798-1.87-4.207-2.793c-2.904-1.904-5.84-3.764-8.798-5.592
		c-1.299-0.802-2.586-1.618-3.894-2.405c-3.165-1.904-6.365-3.75-9.587-5.565c-1.082-0.61-2.142-1.251-3.23-1.85
		c-36.81-20.293-77.279-34.757-120.142-42.252c-21.925-3.834-44.465-5.879-67.487-5.879c-20.802,0-41.209,1.672-61.128,4.815
		c-43.781,6.907-85.129,21.106-122.775,41.324c-38.67,20.769-73.415,47.879-102.862,79.946
		c-28.704,31.259-52.311,67.241-69.636,106.622c-1.679,1.82-3.306,3.687-4.914,5.572c-28.16,33.016-45.278,75.719-45.618,122.434
		c-0.003,0.473-0.035,0.939-0.035,1.413c0,32.909,8.326,63.872,22.982,90.903c3.043,18.461,7.343,36.494,12.887,53.983
		c8.777,27.688,20.61,53.999,35.027,78.622c67.556,115.375,192.723,192.921,336.073,192.921c1.587,0,3.168-0.013,4.75-0.031
		c144.019-1.721,269.149-81.716,335.045-199.368c12.386-22.113,22.676-45.542,30.602-70.051
		c5.87-18.151,10.438-36.877,13.604-56.085c14.653-27.029,22.976-57.989,22.976-90.894
		C1471.003,1008.366,1470.938,1007.287,1470.92,1006.197z"/>
	<path style="fill:#EE991F;" d="M1470.92,1006.197c-0.738-43.901-16.268-84.179-41.847-116.087c-2.721-3.393-5.537-6.705-8.48-9.904
		c-0.021-0.024-0.044-0.046-0.066-0.07c-0.151-0.341-0.283-0.691-0.435-1.032c-0.602-1.359-1.227-2.705-1.844-4.056
		c-1.672-3.659-3.399-7.288-5.181-10.885c-0.642-1.298-1.272-2.601-1.928-3.891c-2.373-4.661-4.818-9.279-7.369-13.829
		c-0.335-0.596-0.692-1.177-1.029-1.772c-2.266-3.988-4.604-7.927-7.004-11.825c-0.822-1.334-1.658-2.659-2.495-3.983
		c-2.173-3.435-4.398-6.832-6.674-10.193c-0.711-1.05-1.403-2.113-2.124-3.156c-2.947-4.26-5.971-8.461-9.08-12.596
		c-0.685-0.912-1.398-1.802-2.092-2.707c-2.526-3.3-5.103-6.559-7.732-9.774c-0.986-1.207-1.977-2.409-2.978-3.604
		c-2.8-3.343-5.654-6.64-8.564-9.886c-0.469-0.524-0.91-1.074-1.381-1.596c-0.134-0.148-0.277-0.287-0.411-0.435
		c-3.293-3.623-6.655-7.18-10.081-10.677c-0.872-0.89-1.77-1.752-2.65-2.633c-2.61-2.614-5.249-5.198-7.932-7.737
		c-1.202-1.138-2.417-2.261-3.634-3.383c-2.522-2.327-5.077-4.618-7.66-6.879c-1.183-1.035-2.358-2.077-3.553-3.097
		c-3.241-2.768-6.527-5.483-9.859-8.145c-0.515-0.411-1.013-0.84-1.53-1.248c-3.849-3.044-7.767-6.003-11.732-8.903
		c-1.135-0.83-2.291-1.629-3.434-2.447c-2.897-2.07-5.817-4.109-8.772-6.101c-1.396-0.941-2.798-1.87-4.207-2.793
		c-2.904-1.904-5.84-3.764-8.798-5.592c-1.299-0.802-2.586-1.618-3.894-2.405c-4.227-2.543-8.489-5.03-12.817-7.416
		c25.843,38.957,46.432,81.422,60.995,125.833c-10.613-1.829-21.507-2.836-32.643-2.836c-92.557,0-169.719,65.842-187.247,153.24
		c-18.595-6.482-38.996-7.722-58.201-3.379c-9.799-44.622-35.183-83.381-70.176-110.303
		c-32.218-24.786-72.539-39.558-116.329-39.558c-15.842,0-31.22,1.964-45.939,5.599c-36.887,9.111-69.545,28.925-94.49,55.98
		c-1.679,1.82-3.306,3.687-4.914,5.572c-28.16,33.016-45.278,75.719-45.618,122.434c-0.003,0.473-0.035,0.939-0.035,1.413
		c0,32.909,8.326,63.872,22.982,90.903c32.32,59.612,95.438,100.094,168.015,100.094c101.076,0,183.761-78.531,190.499-177.898
		c13.433-4.26,28.163-4.615,41.751-1.005c3.05,0.81,6.27,2.487,9.435,4.056c8.206,97.918,90.226,174.847,190.267,174.847
		c1.485,0,2.951-0.078,4.428-0.112c-30.477,61.994-73.163,117.951-125.875,162.641c-27.97,23.699-58.265,44.191-89.784,62.872
		c144.019-1.721,269.149-81.716,335.045-199.368c12.386-22.113,22.676-45.542,30.602-70.051
		c5.87-18.151,10.438-36.877,13.604-56.085c14.653-27.029,22.976-57.989,22.976-90.894
		C1471.003,1008.366,1470.938,1007.287,1470.92,1006.197z"/>
	<path style="fill:#5F63AA;" d="M1470.92,1006.197c-0.738-43.901-16.268-84.179-41.847-116.087c-2.721-3.393-5.537-6.705-8.48-9.904
		c-0.021-0.024-0.044-0.046-0.066-0.07c-27.912-30.314-65.506-51.538-107.878-58.839c-10.613-1.829-21.507-2.836-32.643-2.836
		c-92.557,0-169.719,65.842-187.247,153.24c-18.595-6.482-38.996-7.722-58.201-3.379c-9.799-44.622-35.183-83.381-70.176-110.303
		c-32.218-24.786-72.539-39.558-116.329-39.558c-15.842,0-31.22,1.964-45.939,5.599c-36.887,9.111-69.545,28.925-94.49,55.98
		c-1.679,1.82-3.306,3.687-4.914,5.572c-28.16,33.016-45.278,75.719-45.618,122.434c-0.003,0.473-0.035,0.939-0.035,1.413
		c0,32.909,8.326,63.872,22.982,90.903c32.32,59.612,95.438,100.094,168.015,100.094c101.076,0,183.761-78.531,190.499-177.898
		c13.433-4.26,28.163-4.615,41.751-1.005c3.05,0.81,6.27,2.487,9.435,4.056c8.206,97.918,90.226,174.847,190.267,174.847
		c1.485,0,2.951-0.078,4.428-0.112c70.708-1.613,131.934-41.593,163.592-99.991c14.653-27.029,22.976-57.989,22.976-90.894
		C1471.003,1008.366,1470.938,1007.287,1470.92,1006.197z"/>
	<path style="fill:#FCF09D;" d="M1029.081,785.307c9.718-16.74,16.726-35.815,15.223-55.11
		c-1.503-19.296-13.016-38.609-31.213-45.199c-12.414-4.497-26.209-2.758-39.02,0.448c-42.882,10.728-80.5,36.865-112.514,67.347
		c-22.382,21.31-42.539,45.297-59.442,71.268c14.719-3.635,30.097-5.599,45.939-5.599c43.79,0,84.111,14.772,116.329,39.558
		C989.042,836.207,1012.66,813.598,1029.081,785.307z"/>
	
		<ellipse transform="matrix(0.9984 -0.0557 0.0557 0.9984 -54.2682 72.9041)" style="fill:#2C307B;" cx="1280.007" cy="1009.46" rx="163.025" ry="163.026"/>
	<path style="fill:#AFADD7;" d="M1247.573,1138.646c-3.537-20.967-8.424-36.115-5.447-57.822
		c3.196-23.313,9.622-46.102,18.007-68.058c17.096-44.787,42.309-86.029,68.741-125.822c-7.148-10.86-20.351-16.224-33.203-18.188
		c-41.569-6.341-83.143,17.262-109.749,49.818c-29.535,36.133-44.468,85.444-33.71,130.852
		C1161.975,1090.641,1201.737,1138.663,1247.573,1138.646z"/>
	<path style="fill:#FFFFFF;" d="M1207.286,1223.838c-1.632-8.829-12.97-1.272-17.954,1.055
		c-20.463,9.62-41.978,17.228-64.005,22.343c-63.876,14.867-131.018,12.621-194.034-5.281c-2.015-0.56-4.061-0.395-5.893,0.346
		c-2.952,1.155-5.328,3.747-6.022,6.982c-1.138,5.23,1.122,8.397,4.273,12.175l1.008,1.172c7.391,8.745,15.756,16.947,24.85,24.438
		c36.368,29.883,84.433,47.934,130.882,40.263c44.107-7.279,84.121-33.53,110.689-69.272c0.38-0.511,0.76-1.023,1.14-1.552
		c3.81-5.196,7.308-10.609,10.509-16.17c2.031-3.498,4.404-8.911,4.702-13.53C1207.5,1225.767,1207.466,1224.761,1207.286,1223.838z
		"/>
	
		<ellipse transform="matrix(0.095 -0.9955 0.9955 0.095 -237.4142 1757.7662)" style="fill:#2C307B;" cx="848.054" cy="1009.46" rx="163.026" ry="163.025"/>
	<path style="fill:#AFADD7;" d="M720.258,1049.426c9.766,41.215,49.523,89.237,95.362,89.22c-3.537-20.967-8.424-36.115-5.45-57.822
		c3.199-23.313,9.627-46.102,18.01-68.058c17.096-44.787,42.306-86.029,68.743-125.822c-7.147-10.86-20.353-16.224-33.206-18.188
		c-41.566-6.341-83.14,17.262-109.751,49.818C724.436,954.707,709.498,1004.018,720.258,1049.426z"/>
	<path style="fill:#CAC9C7;" d="M1192.221,1256.507c3.81-5.196,7.308-10.609,10.509-16.17c2.031-3.498,4.404-8.911,4.702-13.53
		c-19.883,15.627-55.64,40.36-90.456,47.571C1116.977,1274.378,1147.286,1276.919,1192.221,1256.507z"/>
	<path style="fill:#CAC9C7;" d="M924.66,1262.629c50.409,25.644,85.308,22.706,85.308,22.706
		c-31.615-6.551-63.99-27.54-84.568-43.035c-2.952,1.155-5.328,3.747-6.022,6.982c-1.138,5.23,1.122,8.397,4.273,12.175
		L924.66,1262.629z"/>
</g>
</svg>
