<svg xmlns="http://www.w3.org/2000/svg" xml:space="preserve" viewBox="0 0 500 500"><path d="M0 0h500v500H0z" style="fill:#fff"/><path d="M464.814 265.099c-.814-2.68-.682-5.617-1.828-8.155-.597-1.298-1.487-2.425-2.349-3.561a94 94 0 0 1-9.131-14.548c-1.184-2.33-2.283-4.726-3.77-6.886-3.391-4.935-8.572-8.316-13.895-11.072-9.443-4.897-19.625-8.155-29.76-11.394-3.059-.976-6.194-1.961-9.405-1.847-2.709.095-5.323.966-7.88 1.838-2.396.814-4.793 1.62-7.18 2.434-.095-2.444-.843-4.868-1.847-7.113-1.383-3.097-3.239-5.948-4.688-9.017-4.565-9.632-4.764-21.207-.644-31.02a8.7 8.7 0 0 0 2.245 2.311c.815.568 1.714.994 2.529 1.553 1.781 1.212 3.088 2.974 4.357 4.707 1.866 2.52 3.817 5.456 3.192 8.524-.265 1.307-.994 2.491-1.184 3.798-.294 2.018.748 4.054 2.226 5.465 1.487 1.402 3.363 2.301 5.209 3.163 1.307.625 2.643 1.25 4.082 1.383 1.061.104 2.188-.114 3.05-.72 1.591 1.269 3.363 2.396 5.371 2.339 1.07-.038 2.102-.417 3.097-.843 3.211-1.383 6.261-3.296 8.496-5.986 2.245-2.681 3.609-6.195 3.249-9.671-.171-1.733-.758-3.391-1.336-5.039a3953 3953 0 0 1-4.452-12.503c-2.008-5.636-4.035-11.489-3.533-17.456.218-2.681.957-5.323 1.051-8.023.161-4.65-1.591-9.131-2.879-13.601a70 70 0 0 1-2.321-11.773c2.624-2.775 5.228-5.55 7.843-8.326.265-.275.54-.682.312-.995-.18-.246-.549-.218-.843-.161l-6.895 1.25 43.589-48.836c.739-3.495-1.137-4.063-1.137-4.063L393.558 96.7c.881-3.864.815-7.947-.246-11.773a415 415 0 0 0-10.021 9.169c-3.296 3.343-6.517 6.876-10.069 9.898-6.194 1.497-12.237 3.988-17.939 6.858-10.286 5.181-19.635 12.247-27.866 20.279-1.857 1.8-3.58 3.732-5.456 5.56.739-1.07 1.468-2.15 2.235-3.211 8.686-12.162 20.97-21.737 34.837-27.335a80 80 0 0 1 6.033-2.15c2.472-.701 4.916-1.354 7.52-1.714 3.504-2.794 7.056-5.56 10.703-8.184-2.69-3.618-7.795-4.944-12.417-5.503-20.449-2.491-41.76 2.841-58.639 14.653-9.311 6.526-17.598 15.079-28.405 18.593-4.594 1.496-10.135 1.818-13.743-1.373-2.501-2.216-3.533-5.948-2.539-9.121.995-3.192 3.969-5.664 7.274-6.071-6.46-1.013-12.872 4.281-14.208 10.684-.843 4.063.066 8.259 2.093 11.896.142.256.294.521.455.777s.332.521.502.767a18 18 0 0 0 1.667 2.15 20.5 20.5 0 0 0 1.923 1.923c-5.929-1.07-11.319 3.268-15.77 7.312-2.51 2.283-5.02 4.556-7.53 6.839-2.993 2.718-6.071 5.493-9.822 6.999-3.751 1.516-8.363 1.544-11.518-.985-3.154-2.529-3.883-7.975-.786-10.58-3.268 1.838-5.371 5.55-5.266 9.282.104 3.741 2.425 7.331 5.778 8.97-5.437.369-10.949-2.832-13.307-7.748.521 10.021 6.734 19.54 15.685 24.077.994.502 2.017.938 3.059 1.307 8.373 3.012 18.176 1.942 25.63-2.974-2.254 7.757-9.358 13.876-17.371 14.956-3.06.407-6.431.038-8.743-2.008-2.32-2.046-2.908-6.128-.578-8.164-2.548 1.203-4.148 3.694-4.669 6.45-.417 3.959 1.25 8.127 4.366 10.627.853.691 1.79 1.26 2.756 1.771 3.486 1.866 7.331 3.097 11.262 3.306 3.94.208 7.975-.634 11.347-2.68-2.103 4.499-4.679 8.827-8.136 12.389-2.841 2.927-6.327 5.314-10.182 6.592a53 53 0 0 0-2.425-.398c5.077 1.326 10.267-.464 15.117-1.904 6.81-2.245 13.45-5.219 19.521-9.027a88.4 88.4 0 0 0 26.568-25.166c4.66-6.763 8.345-14.331 13.185-21.15-3.817 7.416-6.886 15.155-11.328 22.362-8.865 14.387-22.666 25.725-38.464 31.73-3.95 1.487-7.994 2.7-12.124 3.486-4.063.805-8.562 1.335-12.474-.331-16.149-2.425-32.933.89-47.926 7.511-4.793 2.122-9.462 4.575-13.715 7.653a51 51 0 0 0-5.124 4.234c-4.224-5.257-10.921-8.506-17.703-9.396-8.307-1.108-16.727.843-24.617 3.656-9.491 3.391-18.773 8.24-25.318 15.912-6.043 7.075-9.358 16.073-11.716 25.081-2.368 9.093-3.997 18.65-9.121 26.502-5.124 7.871-15.098 13.601-23.926 10.39 1.601 4.84 6.431 8.401 11.518 8.496 5.086.104 10.059-3.277 11.839-8.051-2.86 8.799-.616 18.384-1.61 27.581-.786 7.341-3.713 14.425-8.306 20.194-4.016 5.048-9.964 9.282-16.395 8.752-5.171-.445-9.945-4.291-11.252-9.311-1.307-5.011 1.08-10.826 5.655-13.289 4.565-2.453 10.883-1.146 13.933 3.05-.152-7.113-6.725-13.156-13.819-13.715-7.094-.549-14.056 3.694-17.807 9.737-3.76 6.043-4.594 13.573-3.457 20.601 2.226 13.838 12.086 26.104 24.977 31.598 12.881 5.503 28.367 4.196 40.368-3.05 11.982-7.255 20.26-20.193 22.22-34.06l.483-.076c1.165 8.108-.814 16.632-5.503 23.357 9.159-4.973 14.804-14.918 16.869-25.138 2.074-10.21 1.004-20.781-.436-31.095-1.44-10.334-3.249-20.705-2.652-31.105.89-15.41 7.255-30.451 17.712-41.817 3.002-3.258 6.403-6.27 10.409-8.184 3.95-1.866 8.562-2.586 12.73-1.307-11.063 13.63-15.675 32.582-11.252 49.641 2.377 9.14 7.037 17.532 12.342 25.337 2.681 3.95 5.569 7.833 7.435 12.237.938 2.235 1.601 4.641 1.771 7.056a22.4 22.4 0 0 1-2.131 8.6c-3.202 6.621-9.775 11.991-10.059 19.35-.247 6.185 4.12 11.47 8.117 16.206 9.358 11.091 18.223 23.092 22.258 37.025 1.374 4.717 2.501 10.106 6.64 12.758 2.036 1.297 4.821 1.999 5.635 4.272.729 2.065-.616 4.234-.871 6.393-.502 4.3 3.277 7.88 7.066 9.983 7.284 4.054 15.941 5.588 24.181 4.291 1.279-.199 2.86-.824 2.851-2.122-.009-.436-.199-.833-.407-1.222-3.817-7.539-7.625-15.079-11.451-22.618-1.316-2.605-2.652-5.228-4.508-7.454-1.743-2.074-3.893-3.751-5.882-5.569-9.869-8.989-16.026-21.444-19.758-34.259-.672-2.33-1.278-4.698-1.421-7.113-.274-5.001 1.629-10.049 5.039-13.696.606 3.552 2.103 7.028 4.073 10.059 3.599 5.551 8.61 10.012 13.08 14.871a97.2 97.2 0 0 1 18.015 27.979c1.743 4.13 3.646 8.837 7.842 10.457 1.904.739 4.243.805 5.551 2.377 2.122 2.548-.275 6.479.597 9.661.445 1.62 1.686 2.879 2.983 3.959 7.416 6.242 17.826 8.761 27.278 6.621 1.212-.275 2.68-.975 2.586-2.216-.028-.35-.189-.672-.35-.985q-3.211-6.438-6.422-12.862c-1.515-3.022-3.04-6.09-5.314-8.581-2.036-2.235-4.594-3.921-6.971-5.787-10.125-7.918-17.238-19.009-23.698-30.12-2.103-3.599-4.177-7.312-4.897-11.413-1.43-8.316 3.069-16.604 8.875-22.722s12.967-10.826 18.801-16.926c8.742-9.168 14.15-21.434 15.069-34.079v-.047c.047-.54.076-1.089.095-1.62 4.253-.502 8.534-.815 12.768-.966 4.442-.17 8.903-.199 13.308-.881 2.444-.379 4.859-.957 7.312-1.326 3.76-.549 7.577-.597 11.357-1.08 8.051-1.042 15.827-4.149 22.372-8.97 2.197-1.601 4.366-3.561 5.427-6.024 2.415-.114 4.84-.53 7.18-1.032a107.2 107.2 0 0 0 37.005-15.723c1.222-.824 2.652-1.724 4.092-1.354 1.288.331 2.103 1.582 2.756 2.747a69.4 69.4 0 0 1 5.541 12.872c1.354 4.328 2.292 8.799 3.855 13.071 1.449 3.95 3.514 7.795 6.63 10.608-2.16 1.761-5.692 2.415-6.507 5.115-.36 1.231-.009 2.576-.331 3.817-.862 3.448-5.806 4.016-7.663 7.047-1.203 1.97-.796 4.509-.151 6.725 2.055 6.962 6.242 13.279 11.868 17.863.445.369 1.004.748 1.563.587.388-.114.663-.464.9-.786 8.297-11.489 11.527-25.772 14.567-39.62.483-2.188.966-4.414.891-6.649-.208-5.645-3.845-10.466-6.365-15.515-4.366-8.771-5.456-18.763-8.278-28.159-1.07-3.571-2.661-7.369-5.967-9.102-1.714-.89-3.694-1.118-5.626-1.326-5.759-.615-11.537-1.222-17.305-1.837l6.403-8.562c1.374-1.828 2.747-3.694 3.723-5.749.672.9 1.648 1.582 2.671 2.046 1.44.644 3.012.909 4.547 1.212a75.4 75.4 0 0 1 16.945 5.56c2.965 1.383 5.853 2.955 8.922 4.054 3.088 1.108 6.431 1.714 9.633 1.07l.123.085c-1.658 2.434-3.192 5.465-1.762 7.975 1.08 1.894 3.552 2.718 4.508 4.688 1.194 2.444-.521 5.427.19 8.07.653 2.406 3.116 3.827 5.436 4.793a46.4 46.4 0 0 0 15.913 3.504c1.856.085 4.196-.303 4.688-2.084.255-.969-.162-1.963-.456-2.91M136.585 239.08c-.057.019-.104.038-.161.057a34.4 34.4 0 0 0-6.261 2.955c-10.334 6.488-16.642 17.579-20.866 28.765-5.304 13.791-6.772 28.623-6.157 43.323.189 9.803.322 20.023-3.457 29.267 3.306-9.387 2.87-19.445 2.359-29.229-1.165-14.842.189-30.006 5.257-44.09 3.277-9.434 8.127-18.612 15.439-25.592.104-.095.208-.199.313-.294-9.14 5.134-16.651 13.128-21.15 22.694-6.782 14.046-8.771 29.892-11.953 45.094-1.497 7.71-3.088 15.41-4.632 23.12-2.917 15.022-6.412 32.838-20.752 41.268-6.791 3.987-15.969 4.641-22.618.104 6.734 4.148 15.647 3.22 22.154-.871 6.611-4.139 11.015-10.987 13.772-18.148 2.775-7.255 4.016-15.012 5.427-22.741 2.841-15.495 5.484-30.934 8.676-46.392 5.19-25.194 17.191-45.54 43.721-51.867.047-.009.104-.028.152-.038 1.627-.321 2.338 2.018.737 2.615m103.449 70.194c-2.662 23.594-21.681 42.509-42.878 51.327 19.426-11.375 37.422-29.239 40.52-52.435a1.21 1.21 0 0 1 .767-.928c2.453-.909 4.906-1.648 7.388-2.368 6.924-1.951 14.066-3.476 21.283-3.656.502-.009 1.014-.019 1.516-.019l-.17.029c-9.795 1.439-19.239 4.479-28.426 8.05m34.221-159.53c-10.741 7.691-23.054 15.884-36.911 14.444-2.529-.265-5.01-.871-7.331-1.894-.701-.341-1.799-.644-1.856-1.553.066.426.455.663.814.814 1.156.379 2.387.654 3.59.862 11.461 1.904 22.523-3.277 31.91-9.415 11.101-7.066 23.442-18.365 36.532-8.392-10.173-5.342-18.271-1.089-26.748 5.134m17.721-20.364c-4.83 1.705-17.191 5.086-21.766.834a5 5 0 0 1-1.278-1.847c3.296 6.024 17.267.938 22.249-1.042 11.309-4.527 20.497-12.55 30.707-19.029 10.135-6.45 23.727-11.101 35.13-5.238-11.726-4.016-23.925.957-33.681 7.511-10.106 6.716-19.663 14.861-31.361 18.811m38.142 150.551c-13.222-5.693-20.336-22.533-15.41-35.983-1.43 13.289 4.518 27.449 16.405 34.003 3.855 2.169 8.202 3.524 12.815 3.94-4.584.777-9.471.01-13.81-1.96m29.41-149.954c-4.764 11.499.995 23.546 9.737 31.304.9.862 1.942 1.771 2.898 2.595.322.275.654.54 1.099.606-.445.104-.919-.076-1.326-.246a30 30 0 0 1-7.795-5.039c-8.184-6.792-12.02-20.582-4.613-29.22m-9.434 96.591c4.679 2.548 11.271 6.157 16.064 8.288 4.707 2.216 11.811 4.869 16.765 6.734-12.304-.151-24.655-5.825-32.829-15.022" style="fill:#2e2c43"/><path d="m164.933 194.621-10.881 1.394-5.02 9.753-4.688-9.918-10.827-1.761 7.984-7.523-1.672-10.841 9.622 5.268 9.795-4.94-2.037 10.78zM179.579 190.133c-4.52 0-4.527 7.025 0 7.025 4.52-.001 4.527-7.025 0-7.025M179.091 169.141c-4.52 0-4.527 7.025 0 7.025 4.519-.001 4.527-7.025 0-7.025M117.091 197.944c-4.52 0-4.527 7.024 0 7.024 4.52 0 4.528-7.024 0-7.024M115.627 187.495c-2.26 0-2.264 3.512 0 3.512 2.26.001 2.263-3.512 0-3.512M101.958 197.747c-2.26 0-2.264 3.512 0 3.512 2.259 0 2.263-3.512 0-3.512M185.437 185.054c-2.26 0-2.264 3.512 0 3.512 2.26.001 2.264-3.512 0-3.512M439.86 158.925l3.594-9.659-5.919-8.437 10.297.433 6.194-8.237 2.77 9.927 9.748 3.346-8.585 5.702-.17 10.305-8.076-6.403zM434.233 122.972c-4.52 0-4.527 7.024 0 7.024 4.52.001 4.527-7.024 0-7.024M440.091 174.72c-4.52 0-4.527 7.024 0 7.024 4.52 0 4.527-7.024 0-7.024M450.343 116.917c-2.26 0-2.264 3.512 0 3.512 2.26 0 2.263-3.512 0-3.512M441.556 111.059c-2.26 0-2.264 3.512 0 3.512 2.259 0 2.263-3.512 0-3.512M432.768 185.751c-2.26 0-2.264 3.512 0 3.512 2.26 0 2.264-3.512 0-3.512M446.437 191.121c-2.26 0-2.264 3.512 0 3.512 2.26 0 2.264-3.512 0-3.512M301.137 371.987l-10.769-1.307-7.182 8.128-2.083-10.645-9.951-4.318 9.481-5.272 1.032-10.797 7.943 7.387 10.588-2.355-4.571 9.837zM282.097 316.667l6.226 1.627 4.87-4.206.376 6.424 5.506 3.332-5.994 2.343-1.467 6.265-4.08-4.975-6.413.54 3.472-5.418zM317.247 340.493c-4.52 0-4.528 7.024 0 7.024 4.52.001 4.527-7.024 0-7.024M316.758 317.352c-2.26 0-2.264 3.512 0 3.512 2.26 0 2.264-3.512 0-3.512M327.01 332.974c-2.26 0-2.264 3.512 0 3.512 2.26 0 2.264-3.512 0-3.512M329.451 315.399c-2.26 0-2.264 3.512 0 3.512 2.26.001 2.264-3.512 0-3.512M258.664 368.612c-2.26 0-2.264 3.512 0 3.512 2.26 0 2.264-3.512 0-3.512M174.737 137.996c-20.347 0-36.832-16.485-36.832-36.832 0-20.336 16.485-36.832 36.832-36.832 4.088 0 8.022.668 11.699 1.89-9.152-8.607-21.467-13.876-35.014-13.876-28.225 0-51.109 22.884-51.109 51.108 0 28.225 22.884 51.108 51.109 51.108 17.152 0 32.323-8.453 41.598-21.415a36.7 36.7 0 0 1-18.283 4.849m-63.865-17.224c-10.548-25.729 4.509-56.234 32.282-61.369-31.255 9.521-43.025 48.079-21.98 73.13 6.46 7.631 15.869 12.849 26.109 14.153-15.849.143-30.68-11.196-36.411-25.914M346.35 380.62a4.257 4.257 0 1 1 0-8.514 4.257 4.257 0 0 1 0 8.514M326.969 389.914a3.544 3.544 0 1 1 0-7.089 3.544 3.544 0 0 1 0 7.089M375.18 371.711a4.351 4.351 0 1 1 0-8.702 4.351 4.351 0 0 1 0 8.702" style="fill:#2e2c43"/><path d="m424.741 384.51-14.933 38.462s-4.681 5.078-34.473 5.115h-.309c-29.799-.037-34.473-5.115-34.473-5.115L325.62 384.51l12.32 13.792c3.327 3.724 9.479 1.192 9.229-3.79l-.891-17.869 9.295 14.977c3.356 5.409 11.54 4.224 13.218-1.914l5.689-20.749h1.262l5.819 20.749c1.685 6.138 9.869 7.323 13.218 1.914l9.295-14.977-.891 17.869c-.243 4.982 5.91 7.514 9.229 3.79z" style="fill:#2e2c43"/><path d="M404.01 380.62a4.257 4.257 0 1 0 0-8.514 4.257 4.257 0 0 0 0 8.514M423.39 389.914a3.544 3.544 0 1 0 0-7.089 3.544 3.544 0 0 0 0 7.089M375.181 435.652c-21.101 0-34.113-1.782-36.641-5.017a2.945 2.945 0 0 1 4.306-3.987c.619.366 6.151 3.116 32.335 3.116 26.643 0 32.211-3.276 32.767-3.656a2.944 2.944 0 0 1 4.378 3.921c-1.333 1.691-7.619 5.623-37.145 5.623m-32.004-8.645.003.004zm-.003-.004.002.002zm64.52900000000001-.621-.003.004zm.003-.005-.002.003q.002 0 .002-.003m.285-.299" style="fill:#2e2c43"/></svg>